
<svg width="104" height="20" viewBox="0 0 104 20" fill="none" xmlns="http://www.w3.org/2000/svg">
<path d="M12.7849 11.4485L12.7902 11.4608L12.796 11.4729C12.8833 11.6554 12.9335 11.8781 12.9335 12.1267C12.9335 12.6914 12.6954 13.2033 12.1237 13.694C11.577 14.1632 10.8474 14.4224 9.88942 14.4224H5.67803V5.6176H9.59079C10.5303 5.6176 11.2067 5.85465 11.6961 6.25721C12.2119 6.69508 12.4176 7.13822 12.4176 7.62974C12.4176 7.83252 12.3871 8.02155 12.3239 8.19201C12.2489 8.39472 12.1763 8.52077 12.1188 8.59418C11.9819 8.74401 11.8902 8.8438 11.804 8.92004C11.7632 8.95608 11.7255 8.98485 11.6945 9.00575C11.6615 9.0279 11.6452 9.03511 11.6471 9.03429L11.5902 9.05853L11.5387 9.09269L11.4166 9.17372L10.2603 9.94058L11.5772 10.3773C11.5771 10.3773 11.58 10.3783 11.5859 10.3805C11.5916 10.3826 11.5993 10.3857 11.6087 10.3896C11.6275 10.3975 11.6516 10.4083 11.6791 10.422L11.7219 10.4433L11.7595 10.4558C11.7615 10.4568 11.7813 10.4654 11.8233 10.4888C11.8769 10.5186 11.9497 10.5627 12.041 10.6233L12.0492 10.6287L12.0576 10.634C12.223 10.7368 12.3599 10.851 12.4945 10.9849C12.5815 11.0714 12.6874 11.2221 12.7849 11.4485ZM7.09667 12.9235V13.5987H7.77189H9.67224C10.1236 13.5987 10.5693 13.4594 10.919 13.1347L10.9275 13.1267L10.9357 13.1185C11.2566 12.7994 11.4469 12.3878 11.4469 11.9107C11.4469 11.4153 11.2529 11.0183 10.9357 10.7027L10.9275 10.6945L10.919 10.6866C10.5693 10.3619 10.1235 10.2226 9.67224 10.2226H7.77189H7.09667V10.8978V12.9235ZM10.4742 6.881L10.4647 6.87149L10.4547 6.86236C10.1143 6.54973 9.69755 6.45487 9.30574 6.45487H7.77189H7.09667V7.13009V8.85865V9.53387H7.77189H9.30574C9.7249 9.53387 10.1168 9.41166 10.4329 9.14561L10.4543 9.12753L10.4742 9.10773C10.765 8.81845 10.9311 8.42994 10.9311 7.99439C10.9311 7.55887 10.765 7.17031 10.4742 6.881ZM22.695 6.89942L22.695 6.89944L22.6984 6.90265C23.5822 7.74676 24.0233 8.77188 24.0233 10.02C24.0233 11.2659 23.5837 12.2921 22.6983 13.1509C21.8045 13.9918 20.6869 14.4224 19.2961 14.4224H16.0349V5.6176H19.2961C20.7036 5.6176 21.8177 6.04992 22.695 6.89942ZM17.4536 12.6399V13.3151H18.1288H19.2961C20.197 13.3151 20.9746 12.986 21.612 12.3686C22.2641 11.7369 22.5911 10.9386 22.5911 10.02C22.5911 9.10708 22.2906 8.29245 21.6591 7.66424C21.0292 7.0375 20.2264 6.73845 19.2961 6.73845H18.1288H17.4536V7.41367V12.6399ZM28.5299 9.07472V14.4224H27.1112V5.6176H28.5915L31.5244 9.35641L32.0556 10.0337L32.5869 9.35641L35.5197 5.6176H37V14.4224H35.5814V9.07472V7.14898L34.3788 8.65306L32.0556 11.5586L29.7325 8.65306L28.5299 7.14899V9.07472Z" fill="white" stroke="white" stroke-width="1.35044"/>
<path d="M65.8139 12.289L65.1993 12.5685C65.4168 13.0469 65.5324 13.5592 65.5324 14.1391C65.5324 15.474 64.9545 16.6603 63.7065 17.7304C62.4776 18.7708 60.89 19.3248 58.8777 19.3248H49.9426V0.675219H58.3076C60.2547 0.675219 61.758 1.17044 62.8702 2.09847L62.8702 2.09848L62.8735 2.10121C64.0033 3.03183 64.5143 4.09217 64.5143 5.28022C64.5143 5.7648 64.4436 6.19493 64.287 6.60671L64.2841 6.61426L64.2814 6.62188C64.1179 7.08486 63.9488 7.40018 63.7702 7.60597C63.5233 7.89037 63.3004 8.12314 63.0862 8.31256C62.8951 8.48155 62.712 8.60258 62.5542 8.69993L62.3098 8.82153L60.9996 9.47328L62.3457 10.0472C62.379 10.0614 62.4122 10.0745 62.4399 10.0855C62.4468 10.0881 62.4533 10.0907 62.4597 10.0932C62.4814 10.1017 62.501 10.1094 62.5225 10.1181C62.5751 10.1393 62.6291 10.1625 62.6898 10.1927L62.7106 10.203L62.732 10.2119C62.8395 10.2564 63.0982 10.3928 63.4993 10.6455C63.8709 10.8797 64.1924 11.1303 64.4729 11.4209L64.4728 11.421L64.4826 11.4307C64.713 11.66 64.9575 12.0368 65.1993 12.5685L65.8139 12.289ZM54.0488 15.7191V16.3943H54.7241H58.4433C59.2165 16.3943 59.9277 16.1622 60.4722 15.6253C61.0164 15.1159 61.2904 14.4645 61.2904 13.7069C61.2904 12.9603 61.0146 12.3098 60.4722 11.8021C59.9277 11.2652 59.2165 11.0331 58.4433 11.0331H54.7241H54.0488V11.7083V15.7191ZM59.5612 4.26524L59.556 4.26029L59.5507 4.25545C59.0561 3.80275 58.4294 3.61917 57.7375 3.61917H54.7241H54.0488V4.29439V7.71099V8.38621H54.7241H57.7375C58.4436 8.38621 59.0647 8.18127 59.5507 7.73642C60.0535 7.27625 60.2723 6.66392 60.2723 5.99595C60.2723 5.31887 60.0481 4.73027 59.5612 4.26524ZM74.4233 15.422V16.0972H75.0985H84.753V19.3248H70.317V0.675219H84.4816V3.90275H75.0985H74.4233V4.57797V7.71099V8.38621H75.0985H82.174V11.3302H75.0985H74.4233V12.0054V15.422ZM93.4334 4.86159V4.18637H92.7582H87.8274V0.675219H103.132V4.18637H98.2013H97.5261V4.86159V19.3248H93.4334V4.86159Z" fill="white" stroke="white" stroke-width="1.35044"/>
<path fill-rule="evenodd" clip-rule="evenodd" d="M4.67697 0.82373H38.001C39.9963 0.82373 41.6252 2.44429 41.6252 4.44294V15.6111C41.6252 17.5962 39.9963 19.2167 38.001 19.2167H4.67697C2.68161 19.2167 1.05273 17.5962 1.05273 15.6111V4.44294C1.05273 2.44429 2.68161 0.82373 4.67697 0.82373Z" stroke="white" stroke-width="0.837272" stroke-miterlimit="22.9256"/>
</svg>

